<svg id="Capa_1" enable-background="new 0 0 512 512" height="512" viewBox="0 0 512 512" width="512" xmlns="http://www.w3.org/2000/svg"><g><path d="m352.153 385.824v-75h-344.653v47.709c0 15.073 12.219 27.291 27.291 27.291h6.962v-46.112c0-1.887 1.53-3.417 3.417-3.417h74.483c1.887 0 3.417 1.53 3.417 3.417v46.112z" fill="#86a0af"/><path d="m479.5 310.824v74.905c14-1.164 25-12.895 25-27.196v-47.709z" fill="#86a0af"/><path d="m186.953 450.171 19.534-64.347h99.026l19.534 64.347z" fill="#d0e2e7"/><path d="m305.513 385.824h-33.929l6.867 22.622c3.282 10.813-4.809 21.725-16.109 21.725h-69.319l-6.071 20h138.094z" fill="#b4d0d5"/><circle cx="256" cy="348.324" fill="#617881" r="12.735"/><path d="m348.669 450.171h-185.338c-1.924 0-3.484 1.56-3.484 3.484v20.753c0 1.924 1.56 3.484 3.484 3.484h185.338c1.924 0 3.484-1.56 3.484-3.484v-20.753c0-1.924-1.56-3.484-3.484-3.484z" fill="#d0e2e7"/><path d="m95.724 310.824h-26.624c-1.887 0-3.417 1.53-3.417 3.417v22.053h33.459v-22.053c-.001-1.887-1.531-3.417-3.418-3.417z" fill="#d0e2e7"/><path d="m123.071 339.712c0-1.887-1.53-3.417-3.417-3.417h-74.484c-1.887 0-3.417 1.53-3.417 3.417v67.381h81.318z" fill="#ffd064"/><g fill="#617881"><path d="m41.753 407.094v67.381c0 1.887 1.53 3.417 3.417 3.417h74.483c1.887 0 3.417-1.53 3.417-3.417v-67.381z"/><path d="m334.161 34.108h-299.37c-15.072 0-27.291 12.218-27.291 27.291v249.425h25v-249.425c0-1.265 1.026-2.291 2.291-2.291h292.739l8.156-22.837c.376-1.054-.405-2.163-1.525-2.163z"/><path d="m477.209 34.108h-92.857c-.684 0-1.294.43-1.524 1.074l-8.545 23.926h102.927c1.265 0 2.291 1.026 2.291 2.291v249.425h25v-249.425c-.001-15.073-12.22-27.291-27.292-27.291z"/><path d="m458.618 477.892h-85.582c-11.533 0-20.882-9.349-20.882-20.882v-163.575c0-11.533 9.349-20.882 20.882-20.882h85.582c11.533 0 20.882 9.349 20.882 20.882v163.575c0 11.533-9.349 20.882-20.882 20.882z"/></g><path d="m377.153 449.916v-149.387c0-1.644 1.333-2.976 2.976-2.976h71.394c1.644 0 2.976 1.333 2.976 2.976v149.387c0 1.644-1.333 2.976-2.976 2.976h-71.393c-1.644.001-2.977-1.332-2.977-2.976z" fill="#ecf9f9"/><path d="m451.524 297.553h-27.024v114.379c0 14.338-11.623 25.961-25.961 25.961h-21.386v12.024c0 1.644 1.333 2.976 2.976 2.976h71.394c1.644 0 2.976-1.333 2.976-2.976v-149.388c.001-1.644-1.332-2.976-2.975-2.976z" fill="#e2f4f9"/><path d="m477.209 59.108h-102.927l-10.631 29.767c-1.337 3.743 1.438 7.681 5.413 7.681h20.184c4.536 0 7.285 5.009 4.849 8.835l-51.534 80.946c-1.896 2.978-5.181 4.781-8.711 4.781-7.141 0-12.127-7.075-9.725-13.8l16.679-46.705c.338-.947-.364-1.944-1.37-1.944h-28.593c-3.975 0-6.75-3.938-5.413-7.681l22.099-61.881h-292.738c-1.263 0-2.291 1.028-2.291 2.291v249.425h319.653v-17.389c0-11.533 9.349-20.882 20.882-20.882h85.582c11.533 0 20.882 9.349 20.882 20.882v-232.035c.001-1.263-1.026-2.291-2.29-2.291z" fill="#ecf9f9"/><path d="m345.526 290.824h-313.026v20h319.653v-17.389c0-.969.066-1.922.194-2.855-2.253.162-4.527.244-6.821.244z" fill="#e2f4f9"/><path d="m477.209 59.108h-37.709v137.742c0 31.056-15.064 58.593-38.284 75.703h57.402c11.533 0 20.882 9.349 20.882 20.882v-232.036c0-1.263-1.027-2.291-2.291-2.291z" fill="#e2f4f9"/><path d="m256 368.56c11.158 0 20.235-9.077 20.235-20.235s-9.077-20.235-20.235-20.235-20.235 9.077-20.235 20.235 9.077 20.235 20.235 20.235zm0-25.471c2.887 0 5.235 2.349 5.235 5.235s-2.349 5.235-5.235 5.235-5.235-2.349-5.235-5.235 2.348-5.235 5.235-5.235z"/><path d="m477.209 26.607h-92.857c-3.846 0-7.297 2.434-8.588 6.052-10.594 29.662-5.967 16.707-19.174 53.691-3.08 8.618 3.322 17.706 12.476 17.706h16.991l-49.819 78.254c-1.771 2.697-6.199.792-5.046-2.47l16.681-46.707c2.077-5.825-2.251-11.964-8.435-11.964h-26.108c24.841-69.557 17.268-48.349 29.417-82.373 2.122-5.931-2.285-12.189-8.586-12.189h-299.37c-19.184 0-34.791 15.608-34.791 34.791v297.135c0 19.004 15.316 34.498 34.253 34.786v31.851c0 4.143 3.358 7.5 7.5 7.5s7.5-3.357 7.5-7.5v-10.577h66.318v55.799h-66.318v-10.222c0-4.143-3.358-7.5-7.5-7.5s-7.5 3.357-7.5 7.5v14.304c0 6.021 4.897 10.918 10.917 10.918h74.483c6.02 0 10.917-4.897 10.917-10.918v-81.15h65.801l-14.98 49.347h-18.061c-6.057 0-10.984 4.928-10.984 10.984v20.753c0 6.057 4.927 10.984 10.984 10.984h185.338c3.669 0 6.924-1.809 8.92-4.582 4.448 2.897 9.754 4.582 15.446 4.582h85.582c15.65 0 28.383-12.732 28.383-28.383v-65.096c14.462-4.281 25-17.806 25-33.381v-297.134c.001-19.183-15.606-34.791-34.79-34.791zm-88.713 15h88.713c10.913 0 19.791 8.878 19.791 19.791v241.926h-10v-241.926c0-5.398-4.393-9.791-9.791-9.791h-92.284zm-373.496 19.791c0-10.913 8.878-19.791 19.791-19.791h291.024l-3.57 10h-287.454c-5.399 0-9.791 4.393-9.791 9.791v25.813c0 4.143 3.358 7.5 7.5 7.5s7.5-3.357 7.5-7.5v-20.604h276.887l-18.52 51.858c-3.076 8.619 3.324 17.704 12.477 17.704h20.016l-13.795 38.627c-1.946 5.452-1.118 11.533 2.218 16.266 3.335 4.731 8.782 7.557 14.571 7.557 6.126 0 11.748-3.086 15.038-8.254l51.532-80.946c2.598-4.08 2.767-9.248.439-13.488s-6.777-6.874-11.614-6.874h-17.697l8.016-22.449h92.432v201.804c-3.989-2.142-8.547-3.358-13.383-3.358h-85.582c-15.649 0-28.382 12.732-28.382 28.383v9.889h-304.653v-181.114c0-4.143-3.358-7.5-7.5-7.5s-7.5 3.357-7.5 7.5v181.112h-10zm315.608 381.273-14.98-49.347h29.025v49.347zm-257.426-124.347h18.459v10.471h-18.459zm-58.182 40.209v-40.209h43.182v10.471h-13.012c-6.02 0-10.917 4.897-10.917 10.917v38.605c-10.665-.286-19.253-9.051-19.253-19.784zm34.253 41.061v-55.799h66.318v55.799zm70.4-70.799h-13.012v-10.471h238.012v60c-24.363 0-179.548 0-214.083 0v-38.612c.001-6.02-4.897-10.917-10.917-10.917zm92.395 64.529h87.904l14.98 49.347h-117.864zm132.605 77.069h-177.306v-12.722c6.381 0 177.477 0 177.306 0zm113.964 0h-85.582c-7.379 0-13.382-6.004-13.382-13.383v-163.574c0-7.379 6.003-13.383 13.382-13.383h85.582c7.379 0 13.383 6.004 13.383 13.383v163.574c0 7.379-6.004 13.383-13.383 13.383zm38.383-111.86c0 7.261-4.023 13.738-10 17.18v-57.389h10z"/><path d="m94.17 364.194h-4.259v-4.259c0-4.143-3.358-7.5-7.5-7.5s-7.5 3.357-7.5 7.5v4.259h-4.258c-4.142 0-7.5 3.357-7.5 7.5s3.358 7.5 7.5 7.5h4.258v4.259c0 4.143 3.358 7.5 7.5 7.5s7.5-3.357 7.5-7.5v-4.259h4.259c4.142 0 7.5-3.357 7.5-7.5s-3.358-7.5-7.5-7.5z"/><path d="m94.17 449.993c4.142 0 7.5-3.357 7.5-7.5s-3.358-7.5-7.5-7.5h-23.517c-4.142 0-7.5 3.357-7.5 7.5s3.358 7.5 7.5 7.5z"/><path d="m462 300.529c0-5.776-4.7-10.477-10.477-10.477h-71.393c-5.776 0-10.477 4.7-10.477 10.477v149.387c0 5.776 4.7 10.477 10.477 10.477h71.394c5.776 0 10.477-4.7 10.477-10.477v-14.245c0-4.143-3.357-7.5-7.5-7.5s-7.5 3.357-7.5 7.5v9.722h-62.347v-114.375h5.522l12.203 12.204c2.931 2.929 7.678 2.928 10.607 0 2.929-2.93 2.929-7.678 0-10.607l-14.4-14.4c-1.407-1.406-3.314-2.196-5.304-2.196h-8.629v-10.965h62.347v20.723l-32.647 32.647c-2.929 2.93-2.929 7.678 0 10.607l7.924 7.923-18.415 18.414c-2.929 2.93-2.929 7.678 0 10.607 2.931 2.929 7.678 2.928 10.607 0l23.718-23.718c2.929-2.93 2.929-7.678 0-10.607l-7.924-7.923 16.737-16.737v53.681c0 4.143 3.357 7.5 7.5 7.5s7.5-3.357 7.5-7.5z"/></g></svg>